<?xml version="1.0" encoding="UTF-8" standalone="no"?>
<svg width="29px" height="28px" viewBox="0 0 29 28" version="1.1" xmlns="http://www.w3.org/2000/svg" xmlns:xlink="http://www.w3.org/1999/xlink">
    <!-- Generator: Sketch 3.6.1 (26313) - http://www.bohemiancoding.com/sketch -->
    <title>Shape</title>
    <desc>Created with Sketch.</desc>
    <defs></defs>
    <g id="Page-1" stroke="none" stroke-width="1" fill="none" fill-rule="evenodd">
        <path d="M0.419686003,0 C0.391446041,0 0.362701793,0 0.348581812,0.0141199811 C0.0646693345,0.0705999057 -0.0629147807,0.481592214 0.149893506,0.679776234 L13.4751214,14.002987 L0.149893506,27.2979578 C-0.0346748184,27.4396619 -0.0487947995,27.7371901 0.107533563,27.8930142 C0.263861925,28.0488382 0.561390099,28.034214 0.703598481,27.8506542 L14.0429464,14.5410591 L27.3822943,27.8506542 C27.5245026,28.034214 27.8084151,28.0488382 27.9788635,27.8930142 C28.1351918,27.7371901 28.1205676,27.4401662 27.9359992,27.2979578 L14.5966513,14.002987 L27.9359992,0.679776234 C28.1775518,0.438727985 27.9077593,-0.0564799245 27.5814868,0.0141199811 C27.4962627,0.0282399623 27.4251585,0.0705999057 27.3822943,0.127584115 L14.0429464,13.4225549 L0.703598481,0.127584115 C0.63249429,0.0423599434 0.519030156,0 0.419686003,0 L0.419686003,0 L0.419686003,0 Z" id="Shape" fill="#FFFFFF"></path>
    </g>
</svg>